<svg width="24" height="24" viewBox="0 0 24 24" fill="none" xmlns="http://www.w3.org/2000/svg">
<g clipPath="url(#clip0_136_334)">
<path fillRule="evenodd" clipRule="evenodd" d="M12.9839 8.22409C12.9075 8.14774 12.7837 8.14774 12.7074 8.22409L10.824 10.1075L13.8927 13.1761L15.7761 11.2928C15.8524 11.2164 15.8524 11.0926 15.7761 11.0163L12.9839 8.22409ZM12.7731 14.2957L9.70442 11.2271L3.54202 17.3895C3.50902 17.4225 3.48891 17.4662 3.48533 17.5127L3.23515 20.765L6.48744 20.5148C6.53397 20.5112 6.57769 20.4911 6.61069 20.4581L12.7731 14.2957ZM11.5878 7.10451C12.2825 6.40983 13.4088 6.40982 14.1035 7.10451L16.8956 9.89668C17.5903 10.5914 17.5903 11.7177 16.8956 12.4124L7.73028 21.5777C7.43002 21.878 7.03226 22.0609 6.60887 22.0935L2.4357 22.4145C2.20527 22.4322 1.97861 22.3484 1.81519 22.185C1.65177 22.0215 1.56792 21.7949 1.58565 21.5644L1.90666 17.3913C1.93923 16.9679 2.12217 16.5701 2.42243 16.2699L11.5878 7.10451Z" fill="#00B2A9"/>
</g>
<defs>
<clipPath id="clip0_136_334">
<rect width="24" height="24" fill="white"/>
</clipPath>
</defs>
</svg>
