<svg width="20" height="20" viewBox="0 0 20 20" fill="none" xmlns="http://www.w3.org/2000/svg">
<path fill-rule="evenodd" clip-rule="evenodd" d="M14.4007 2.07233C14.3043 1.97589 14.1479 1.97589 14.0515 2.07233L11.6725 4.45133L15.5487 8.32755L17.9277 5.94855C18.0241 5.85211 18.0241 5.69574 17.9277 5.59929L14.4007 2.07233ZM14.1345 9.74176L10.2582 5.86554L2.47416 13.6496C2.43247 13.6913 2.40707 13.7465 2.40255 13.8053L2.08654 17.9135L6.19468 17.5975C6.25346 17.5929 6.30869 17.5675 6.35037 17.5258L14.1345 9.74176ZM12.6372 0.658121C13.5147 -0.219373 14.9374 -0.219374 15.8149 0.658121L19.3419 4.18508C20.2194 5.06257 20.2194 6.48527 19.3419 7.36277L7.76459 18.9401C7.38531 19.3193 6.88288 19.5504 6.34808 19.5916L1.0767 19.9971C0.785635 20.0194 0.499319 19.9135 0.292897 19.7071C0.0864746 19.5007 -0.0194406 19.2144 0.00294904 18.9233L0.408439 13.6519C0.449577 13.1171 0.680667 12.6147 1.05994 12.2354L12.6372 0.658121Z" fill="#00B2A9"/>
</svg>
